<?xml version="1.0" standalone="no"?>
<!DOCTYPE svg PUBLIC "-//W3C//DTD SVG 20010904//EN"
 "http://www.w3.org/TR/2001/REC-SVG-20010904/DTD/svg10.dtd">
<svg version="1.0" xmlns="http://www.w3.org/2000/svg" width="474.000000pt" height="537.000000pt" viewBox="0 0 474.000000 537.000000" preserveAspectRatio="xMidYMid meet"> 
									<g transform="translate(0.000000,537.000000) scale(0.100000,-0.100000)" fill="#000000" stroke="none">
										<path d="M0 5340 c0 -37 6 -37 50 0 l35 29 -42 1 c-41 0 -43 -1 -43 -30z"/>
										<path d="M2410 4983 c-258 -24 -549 -100 -791 -206 -106 -47 -252 -120 -279
										-141 -8 -7 -27 -18 -41 -25 -50 -25 -238 -170 -315 -243 -145 -137 -268 -311
										-341 -478 -53 -124 -101 -330 -77 -330 3 0 27 18 52 41 85 74 255 161 370 189
										62 14 73 10 35 -15 -158 -103 -421 -364 -486 -483 l-27 -49 44 -89 c233 -477
										312 -1085 214 -1656 -11 -68 -21 -133 -21 -145 1 -28 102 -192 197 -321 417
										-559 946 -852 1541 -852 456 0 878 161 1194 455 173 162 340 408 435 640 l37
										91 -76 259 c-42 143 -86 293 -97 333 -11 39 -24 72 -27 72 -4 0 -29 -60 -55
										-132 -58 -161 -128 -303 -196 -401 -55 -78 -128 -163 -135 -156 -2 3 1 25 6
										49 17 73 6 255 -20 323 -71 182 -252 285 -553 313 l-76 7 -7 -48 c-12 -76 -1
										-185 23 -232 23 -45 23 -44 125 -68 148 -33 268 -122 301 -223 40 -119 5 -301
										-65 -337 -93 -49 -176 13 -260 191 -21 46 -51 92 -69 107 -91 77 -270 53 -337
										-44 -115 -165 -168 -223 -255 -280 -81 -52 -152 -66 -232 -46 -119 29 -166 77
										-166 170 0 213 270 404 660 464 58 9 110 21 117 26 31 23 66 123 71 203 6 112
										2 118 -89 115 -251 -7 -521 -74 -684 -169 -81 -47 -185 -154 -218 -222 -52
										-108 -70 -237 -47 -335 5 -22 7 -41 5 -44 -14 -14 -211 180 -291 285 -158 210
										-316 555 -380 832 l-15 63 45 117 c25 64 86 223 136 352 139 358 132 335 121
										361 -5 13 -39 87 -76 164 l-67 140 49 43 c102 92 260 166 419 195 144 28 248
										30 429 12 248 -26 488 -17 690 25 162 33 327 85 475 150 l94 40 38 -26 c53
										-37 176 -168 220 -235 115 -175 178 -377 178 -575 0 -45 4 -85 9 -88 12 -8 74
										123 111 231 141 421 18 734 -349 888 l-76 32 -6 89 c-11 170 -58 276 -174 390
										-107 104 -235 167 -430 211 -91 20 -144 25 -300 27 -104 2 -210 2 -235 -1z"/>
									</g>
								</svg>